#Exported from google sketchup
mtllib Missile.mtl
  v  -0.0000   0.1320  -0.0762
  v   0.0000  -0.1320  -0.0762
  v   0.0000  -0.0000  -0.1524
  v  -0.0000   0.1320   0.0762
  v   0.0000  -0.1320   0.0762
  v   0.0000   0.0000   0.1524
  v   0.0762  -0.1320   0.0762
  v   0.3810  -0.1320   0.0762
  v   1.2954  -0.1320   0.0762
  v   1.4478  -0.1320   0.0762
  v   1.8288  -0.1320   0.0762
  v   0.0762   0.0000   0.1524
  v   1.2954   0.0000   0.1524
  v   1.4478   0.0000   0.1524
  v   1.8288   0.0000   0.1524
  v   0.3810   0.0000   0.1524
  v   0.0762   0.0000  -0.1524
  v   0.3810   0.0000  -0.1524
  v   1.2954   0.0000  -0.1524
  v   1.4478   0.0000  -0.1524
  v   1.8288   0.0000  -0.1524
  v   0.0762   0.1320  -0.0762
  v   1.4478   0.1320  -0.0762
  v   1.8288   0.1320  -0.0762
  v   0.3810   0.1320  -0.0762
  v   1.2954   0.1320  -0.0762
  v   1.8288  -0.1320  -0.0762
  v   1.2954  -0.1320  -0.0762
  v   1.4478  -0.1320  -0.0762
  v   0.0762  -0.1320  -0.0762
  v   0.3810  -0.1320  -0.0762
  v   2.0574  -0.0495  -0.0286
  v   2.0574   0.0495  -0.0286
  v   2.0574   0.0000  -0.0572
  v   2.0574  -0.0495   0.0286
  v   2.0574   0.0495   0.0286
  v   2.0574   0.0000   0.0572
  v   1.9812   0.0990   0.0572
  v   1.9812   0.0990  -0.0572
  v   1.8288   0.1320   0.0762
  v   1.9812   0.0000  -0.1143
  v   1.9812  -0.0990  -0.0572
  v   1.9812   0.0000   0.1143
  v   1.9812  -0.0990   0.0572
  v   0.3810   0.1320   0.0762
  v  -0.0000   0.3959   0.2286
  v   0.0762   0.1320   0.0762
  v   0.2286   0.3959   0.2286
  v   1.2954   0.1320   0.0762
  v   1.4478   0.1320   0.0762
  v  -0.0000   0.3959  -0.2286
  v   0.2286   0.3959  -0.2286
  v   0.2286  -0.0000  -0.4572
  v  -0.0000  -0.0000  -0.4572
  v   0.2286  -0.3959  -0.2286
  v   0.0000  -0.3959  -0.2286
  v   0.2286  -0.3959   0.2286
  v   0.0000  -0.3959   0.2286
  v   0.2286   0.0000   0.4572
  v   0.0000   0.0000   0.4572
  v   1.2192   0.3959  -0.2286
  v   1.2954   0.3959  -0.2286
  v   1.2192   0.3959   0.2286
  v   1.2954   0.3959   0.2286
  v   1.2954   0.0000   0.4572
  v   1.2192   0.0000   0.4572
  v   1.2954  -0.3959   0.2286
  v   1.2192  -0.3959   0.2286
  v   1.2954  -0.3959  -0.2286
  v   1.2192  -0.3959  -0.2286
  v   1.2954   0.0000  -0.4572
  v   1.2192   0.0000  -0.4572
#  72 elements
  vt   0.0000   0.0000 0.0000
  vt   0.0000   0.0000 0.0000
  vt   0.0000   0.0000 0.0000
  vt   0.0000   0.0000 0.0000
  vt   0.0000   0.0000 0.0000
  vt   0.0000   0.0000 0.0000
  vt   0.0000   0.0000 0.0000
  vt   0.0000   0.0000 0.0000
  vt   0.0000   0.0000 0.0000
  vt   0.0000   0.0000 0.0000
  vt   0.0000   0.0000 0.0000
  vt   0.0000   0.0000 0.0000
  vt   0.0000   0.0000 0.0000
  vt   0.0000   0.0000 0.0000
  vt   0.0000   0.0000 0.0000
  vt   0.0000   0.0000 0.0000
  vt   0.0000   0.0000 0.0000
  vt   0.0000   0.0000 0.0000
  vt   0.0000   0.0000 0.0000
  vt   0.0000   0.0000 0.0000
  vt   0.0000   0.0000 0.0000
  vt   0.0000   0.0000 0.0000
  vt   0.0000   0.0000 0.0000
  vt   0.0000   0.0000 0.0000
  vt   0.0000   0.0000 0.0000
  vt   0.0000   0.0000 0.0000
  vt   0.0000   0.0000 0.0000
  vt   0.0000   0.0000 0.0000
  vt   0.0000   0.0000 0.0000
  vt   0.0000   0.0000 0.0000
  vt   0.0000   0.0000 0.0000
  vt   0.0000   0.0000 0.0000
  vt   0.0000   0.0000 0.0000
  vt   0.0000   0.0000 0.0000
  vt   0.0000   0.0000 0.0000
  vt   0.0000   0.0000 0.0000
  vt   0.0000   0.0000 0.0000
  vt   0.0000   0.0000 0.0000
  vt   0.0000   0.0000 0.0000
  vt   0.0000   0.0000 0.0000
  vt   0.0000   0.0000 0.0000
  vt   0.0000   0.0000 0.0000
  vt   0.0000   0.0000 0.0000
  vt   0.0000   0.0000 0.0000
  vt   0.0000   0.0000 0.0000
  vt   0.0000   0.0000 0.0000
  vt   0.0000   0.0000 0.0000
  vt   0.0000   0.0000 0.0000
  vt   0.0000   0.0000 0.0000
  vt   0.0000   0.0000 0.0000
  vt   0.0000   0.0000 0.0000
  vt   0.0000   0.0000 0.0000
  vt   0.0000   0.0000 0.0000
  vt   0.0000   0.0000 0.0000
  vt   0.0000   0.0000 0.0000
  vt   0.0000   0.0000 0.0000
  vt   0.0000   0.0000 0.0000
  vt   0.0000   0.0000 0.0000
  vt   0.0000   0.0000 0.0000
  vt   0.0000   0.0000 0.0000
  vt   0.0000   0.0000 0.0000
  vt   0.0000   0.0000 0.0000
  vt   0.0000   0.0000 0.0000
  vt   0.0000   0.0000 0.0000
  vt   0.0000   0.0000 0.0000
  vt   0.0000   0.0000 0.0000
  vt   0.0000   0.0000 0.0000
  vt   0.0000   0.0000 0.0000
  vt   0.0000   0.0000 0.0000
  vt   0.0000   0.0000 0.0000
  vt   0.0000   0.0000 0.0000
  vt   0.0000   0.0000 0.0000
#  72 elements
  vn  -1.0000  -0.0000  -0.0000
  vn   0.0000  -0.5000   0.8660
  vn   0.0000   0.5000  -0.8660
  vn   0.0000  -0.5000  -0.8660
  vn   0.0000  -1.0000   0.0000
  vn   1.0000   0.0000   0.0000
  vn   0.5447   0.8386  -0.0000
  vn   0.2116   0.9774  -0.0000
  vn   0.2116   0.4887  -0.8464
  vn   0.5447   0.4193  -0.7263
  vn   0.5447  -0.4193  -0.7263
  vn   0.2116  -0.4887  -0.8464
  vn   0.5447   0.4193   0.7263
  vn   0.2116   0.4887   0.8464
  vn   0.5447  -0.4193   0.7263
  vn   0.5447  -0.8386   0.0000
  vn   0.2116  -0.4887   0.8464
  vn   0.2116  -0.9774   0.0000
  vn  -0.0000   1.0000  -0.0000
  vn  -0.0000   0.5000   0.8660
  vn  -0.0000  -0.5000   0.8660
#  21 elements
#  116 faces
usemtl Default_Material
f 3/3/1 2/2/1 1/1/1
f 4/4/1 1/1/1 2/2/1
f 5/5/1 4/4/1 2/2/1
f 6/6/1 4/4/1 5/5/1
f 5/5/2 7/7/2 6/6/2
f 8/8/2 6/6/2 7/7/2
f 9/9/2 6/6/2 8/8/2
f 10/10/2 6/6/2 9/9/2
f 11/11/2 6/6/2 10/10/2
f 12/12/2 6/6/2 11/11/2
f 13/13/2 12/12/2 11/11/2
f 14/14/2 13/13/2 11/11/2
f 15/15/2 14/14/2 11/11/2
f 16/16/2 12/12/2 13/13/2
f 3/3/3 1/1/3 17/17/3
f 18/18/3 17/17/3 1/1/3
f 19/19/3 18/18/3 1/1/3
f 20/20/3 19/19/3 1/1/3
f 21/21/3 20/20/3 1/1/3
f 22/22/3 21/21/3 1/1/3
f 23/23/3 21/21/3 22/22/3
f 24/24/3 21/21/3 23/23/3
f 25/25/3 23/23/3 22/22/3
f 26/26/3 23/23/3 25/25/3
f 29/29/4 28/28/4 27/27/4
f 2/2/4 3/3/4 30/30/4
f 31/31/4 30/30/4 3/3/4
f 28/28/4 31/31/4 3/3/4
f 27/27/4 28/28/4 3/3/4
f 21/21/4 27/27/4 3/3/4
f 17/17/4 21/21/4 3/3/4
f 18/18/4 21/21/4 17/17/4
f 19/19/4 21/21/4 18/18/4
f 20/20/4 21/21/4 19/19/4
f 5/5/5 2/2/5 7/7/5
f 30/30/5 7/7/5 2/2/5
f 8/8/5 7/7/5 30/30/5
f 31/31/5 8/8/5 30/30/5
f 9/9/5 8/8/5 31/31/5
f 28/28/5 9/9/5 31/31/5
f 29/29/5 9/9/5 28/28/5
f 10/10/5 9/9/5 29/29/5
f 27/27/5 10/10/5 29/29/5
f 11/11/5 10/10/5 27/27/5
f 34/34/6 33/33/6 32/32/6
f 35/35/6 32/32/6 33/33/6
f 36/36/6 35/35/6 33/33/6
f 37/37/6 35/35/6 36/36/6
f 39/39/7 38/38/7 33/33/7
f 36/36/7 33/33/7 38/38/7
f 40/40/8 38/38/8 24/24/8
f 39/39/8 24/24/8 38/38/8
f 21/21/9 24/24/9 41/41/9
f 39/39/9 41/41/9 24/24/9
f 41/41/10 39/39/10 34/34/10
f 33/33/10 34/34/10 39/39/10
f 42/42/11 41/41/11 32/32/11
f 34/34/11 32/32/11 41/41/11
f 27/27/12 21/21/12 42/42/12
f 41/41/12 42/42/12 21/21/12
f 37/37/13 36/36/13 43/43/13
f 38/38/13 43/43/13 36/36/13
f 15/15/14 43/43/14 40/40/14
f 38/38/14 40/40/14 43/43/14
f 44/44/15 35/35/15 43/43/15
f 37/37/15 43/43/15 35/35/15
f 42/42/16 32/32/16 44/44/16
f 35/35/16 44/44/16 32/32/16
f 11/11/17 44/44/17 15/15/17
f 43/43/17 15/15/17 44/44/17
f 11/11/18 27/27/18 44/44/18
f 42/42/18 44/44/18 27/27/18
f 47/47/3 46/46/3 45/45/3
f 48/48/3 45/45/3 46/46/3
f 4/4/19 47/47/19 1/1/19
f 22/22/19 1/1/19 47/47/19
f 25/25/19 22/22/19 47/47/19
f 45/45/19 25/25/19 47/47/19
f 49/49/19 25/25/19 45/45/19
f 26/26/19 25/25/19 49/49/19
f 23/23/19 26/26/19 49/49/19
f 50/50/19 23/23/19 49/49/19
f 24/24/19 23/23/19 50/50/19
f 40/40/19 24/24/19 50/50/19
f 6/6/20 12/12/20 4/4/20
f 16/16/20 4/4/20 12/12/20
f 13/13/20 4/4/20 16/16/20
f 14/14/20 4/4/20 13/13/20
f 15/15/20 4/4/20 14/14/20
f 40/40/20 4/4/20 15/15/20
f 47/47/20 4/4/20 40/40/20
f 45/45/20 47/47/20 40/40/20
f 50/50/20 45/45/20 40/40/20
f 49/49/20 45/45/20 50/50/20
f 22/22/4 51/51/4 25/25/4
f 52/52/4 25/25/4 51/51/4
f 54/54/5 53/53/5 17/17/5
f 18/18/5 17/17/5 53/53/5
f 56/56/2 55/55/2 30/30/2
f 31/31/2 30/30/2 55/55/2
f 58/58/20 57/57/20 7/7/20
f 8/8/20 7/7/20 57/57/20
f 60/60/19 59/59/19 12/12/19
f 16/16/19 12/12/19 59/59/19
f 26/26/4 61/61/4 23/23/4
f 62/62/4 23/23/4 61/61/4
f 49/49/3 63/63/3 50/50/3
f 64/64/3 50/50/3 63/63/3
f 66/66/19 65/65/19 13/13/19
f 14/14/19 13/13/19 65/65/19
f 68/68/20 67/67/20 9/9/20
f 10/10/20 9/9/20 67/67/20
f 70/70/21 69/69/21 28/28/21
f 29/29/21 28/28/21 69/69/21
f 72/72/5 71/71/5 19/19/5
f 20/20/5 19/19/5 71/71/5
