#Exported from google sketchup
mtllib Plane.mtl
  v   3.8100   0.0000   0.1524
  v   0.7620   0.0000   1.6764
  v   0.7620   0.1524   0.6096
  v   0.7620   0.0000  -0.4572
  v   3.8100   0.0000  -0.4572
  v   1.9812   0.0000  -1.3716
  v   0.7620   0.0000  -1.6764
  v   0.7620   0.0000  -0.7620
  v   1.9812   0.0000  -1.6764
  v   0.7620   0.0762  -1.2192
  v   0.7620  -0.2540  -1.9812
  v   0.7620   0.2540  -1.9812
  v   0.7620  -0.2540   1.6764
  v   0.7620   0.2540   1.6764
  v   0.3048   0.3302  -0.6858
  v   0.3048   0.3302  -1.9812
  v   0.3048   0.3302   1.8288
  v   0.5922  -0.1219  -2.2860
  v   0.1698  -0.1219  -2.2860
  v   0.3810  -0.2438  -2.2860
  v   0.1698   0.1219  -2.2860
  v   0.5922   0.1219  -2.2860
  v   0.3810   0.2438  -2.2860
  v   0.6450  -0.1524  -1.9812
  v   0.6450   0.1524  -1.9812
  v   0.3810  -0.3048  -1.9812
  v   0.1170  -0.1524  -1.9812
  v   0.1170   0.1524  -1.9812
  v   0.3810   0.3048  -1.9812
  v   0.3048   0.0000   1.8288
  v   0.3048  -0.3302   1.8288
  v   0.3048  -0.3302  -0.6858
  v   0.3048  -0.3302  -1.9812
  v   0.0000   0.0000   3.6576
  v   0.0000   0.3302   1.8288
  v   0.0000  -0.3302   1.8288
  v   0.0000   0.3302  -0.6858
  v   0.0000   1.5494  -1.2954
  v   0.0762   0.3302  -1.3335
  v   0.0000   1.5494  -1.9812
  v   0.0000   0.3302  -1.9812
  v  -0.7620  -0.2540   1.6764
  v  -0.3048   0.0000   1.8288
  v  -0.3048  -0.3302   1.8288
  v  -0.7620   0.0000   1.6764
  v  -0.7620   0.2540   1.6764
  v  -0.3048   0.3302   1.8288
  v  -0.7620  -0.2540  -1.9812
  v  -0.3048  -0.3302  -1.9812
  v  -0.3048  -0.3302  -0.6858
  v  -0.3810  -0.3048  -1.9812
  v  -0.1170  -0.1524  -1.9812
  v  -0.1170   0.1524  -1.9812
  v  -0.3810   0.3048  -1.9812
  v  -0.3048   0.3302  -1.9812
  v  -0.6450  -0.1524  -1.9812
  v  -0.7620   0.2540  -1.9812
  v  -0.6450   0.1524  -1.9812
  v  -0.3048   0.3302  -0.6858
  v  -0.5922  -0.1219  -2.2860
  v  -0.5922   0.1219  -2.2860
  v  -0.3810  -0.2438  -2.2860
  v  -0.1698  -0.1219  -2.2860
  v  -0.1698   0.1219  -2.2860
  v  -0.3810   0.2438  -2.2860
  v  -0.7620   0.0000  -0.7620
  v  -1.9812   0.0000  -1.6764
  v  -1.9812   0.0000  -1.3716
  v  -0.7620   0.0000  -1.6764
  v  -0.7620   0.0762  -1.2192
  v  -0.7620   0.1524   0.6096
  v  -0.7620   0.0000  -0.4572
  v  -0.0762   0.3302  -1.3335
  v  -3.8100   0.0000  -0.4572
  v  -3.8100   0.0000   0.1524
#  75 elements
  vt   0.0000   0.0000 0.0000
  vt   0.0000   0.0000 0.0000
  vt   0.0000   0.0000 0.0000
  vt   0.0000   0.0000 0.0000
  vt   0.0000   0.0000 0.0000
  vt   0.0000   0.0000 0.0000
  vt   0.0000   0.0000 0.0000
  vt   0.0000   0.0000 0.0000
  vt   0.0000   0.0000 0.0000
  vt   0.0000   0.0000 0.0000
  vt   0.0000   0.0000 0.0000
  vt   0.0000   0.0000 0.0000
  vt   0.0000   0.0000 0.0000
  vt   0.0000   0.0000 0.0000
  vt   0.0000   0.0000 0.0000
  vt   0.0000   0.0000 0.0000
  vt   0.0000   0.0000 0.0000
  vt   0.0000   0.0000 0.0000
  vt   0.0000   0.0000 0.0000
  vt   0.0000   0.0000 0.0000
  vt   0.0000   0.0000 0.0000
  vt   0.0000   0.0000 0.0000
  vt   0.0000   0.0000 0.0000
  vt   0.0000   0.0000 0.0000
  vt   0.0000   0.0000 0.0000
  vt   0.0000   0.0000 0.0000
  vt   0.0000   0.0000 0.0000
  vt   0.0000   0.0000 0.0000
  vt   0.0000   0.0000 0.0000
  vt   0.0000   0.0000 0.0000
  vt   0.0000   0.0000 0.0000
  vt   0.0000   0.0000 0.0000
  vt   0.0000   0.0000 0.0000
  vt   0.0000   0.0000 0.0000
  vt   0.0000   0.0000 0.0000
  vt   0.0000   0.0000 0.0000
  vt   0.0000   0.0000 0.0000
  vt   0.0000   0.0000 0.0000
  vt   0.0000   0.0000 0.0000
  vt   0.0000   0.0000 0.0000
  vt   0.0000   0.0000 0.0000
  vt   0.0000   0.0000 0.0000
  vt   0.0000   0.0000 0.0000
  vt   0.0000   0.0000 0.0000
  vt   0.0000   0.0000 0.0000
  vt   0.0000   0.0000 0.0000
  vt   0.0000   0.0000 0.0000
  vt   0.0000   0.0000 0.0000
  vt   0.0000   0.0000 0.0000
  vt   0.0000   0.0000 0.0000
  vt   0.0000   0.0000 0.0000
  vt   0.0000   0.0000 0.0000
  vt   0.0000   0.0000 0.0000
  vt   0.0000   0.0000 0.0000
  vt   0.0000   0.0000 0.0000
  vt   0.0000   0.0000 0.0000
  vt   0.0000   0.0000 0.0000
  vt   0.0000   0.0000 0.0000
  vt   0.0000   0.0000 0.0000
  vt   0.0000   0.0000 0.0000
  vt   0.0000   0.0000 0.0000
  vt   0.0000   0.0000 0.0000
  vt   0.0000   0.0000 0.0000
  vt   0.0000   0.0000 0.0000
  vt   0.0000   0.0000 0.0000
  vt   0.0000   0.0000 0.0000
  vt   0.0000   0.0000 0.0000
  vt   0.0000   0.0000 0.0000
  vt   0.0000   0.0000 0.0000
  vt   0.0000   0.0000 0.0000
  vt   0.0000   0.0000 0.0000
  vt   0.0000   0.0000 0.0000
  vt   0.0000   0.0000 0.0000
  vt   0.0000   0.0000 0.0000
  vt   0.0000   0.0000 0.0000
#  75 elements
  vn   0.0705   0.9875   0.1411
  vn   0.0000  -1.0000   0.0000
  vn  -0.0000   0.9899  -0.1414
  vn   0.0499   0.9988   0.0000
  vn   0.0819   0.9831   0.1638
  vn   0.0624   0.9981  -0.0000
  vn  -0.0000   0.9864  -0.1644
  vn   1.0000   0.0000   0.0000
  vn   0.1644   0.9864  -0.0000
  vn   0.0000   0.0000  -1.0000
  vn   0.9853   0.0000  -0.1707
  vn  -0.4927  -0.8533  -0.1707
  vn  -0.9853  -0.0000  -0.1707
  vn   0.4927  -0.8533  -0.1707
  vn  -0.4927   0.8533  -0.1707
  vn   0.4927   0.8533  -0.1707
  vn   0.3162   0.0000   0.9487
  vn   0.1644  -0.9864   0.0000
  vn  -1.0000   0.0000   0.0000
  vn   0.7294   0.6733   0.1216
  vn   0.7319   0.6756   0.0887
  vn   0.7319  -0.6756   0.0887
  vn   0.7294  -0.6733   0.1216
  vn   0.9915   0.0583   0.1166
  vn   0.9932   0.0000  -0.1168
  vn   0.9981   0.0624   0.0000
  vn  -0.3162   0.0000   0.9487
  vn  -0.1644  -0.9864   0.0000
  vn  -0.9853   0.0000  -0.1707
  vn   0.9853  -0.0000  -0.1707
  vn  -0.1644   0.9864  -0.0000
  vn  -0.9981   0.0624   0.0000
  vn  -0.0624   0.9981   0.0000
  vn  -0.0000   1.0000  -0.0000
  vn  -0.7294   0.6733   0.1216
  vn   0.0000   0.9864  -0.1644
  vn   0.0000   0.9899  -0.1414
  vn  -0.0819   0.9831   0.1638
  vn  -0.0705   0.9875   0.1411
  vn  -0.0499   0.9988   0.0000
  vn  -0.9932   0.0000  -0.1168
  vn   0.0000  -1.0000  -0.0000
  vn  -0.7319   0.6756   0.0887
  vn  -0.9915   0.0583   0.1166
  vn  -0.7319  -0.6756   0.0887
  vn  -0.7294  -0.6733   0.1216
#  46 elements
#  146 faces
usemtl Default_Material
f 3/3/1 2/2/1 1/1/1
f 2/2/2 4/4/2 1/1/2
f 5/5/2 1/1/2 4/4/2
f 8/8/2 7/7/2 6/6/2
f 9/9/2 6/6/2 7/7/2
f 4/4/3 3/3/3 5/5/3
f 5/5/4 3/3/4 1/1/4
f 10/10/5 8/8/5 6/6/5
f 9/9/6 10/10/6 6/6/6
f 7/7/7 10/10/7 9/9/7
f 12/12/8 7/7/8 11/11/8
f 13/13/8 11/11/8 7/7/8
f 8/8/8 13/13/8 7/7/8
f 4/4/8 13/13/8 8/8/8
f 2/2/8 13/13/8 4/4/8
f 14/14/8 10/10/8 12/12/8
f 7/7/8 12/12/8 10/10/8
f 3/3/8 10/10/8 14/14/8
f 8/8/8 10/10/8 3/3/8
f 4/4/8 8/8/8 3/3/8
f 2/2/8 3/3/8 14/14/8
f 16/16/9 15/15/9 12/12/9
f 17/17/9 12/12/9 15/15/9
f 14/14/9 12/12/9 17/17/9
f 20/20/10 19/19/10 18/18/10
f 21/21/10 18/18/10 19/19/10
f 22/22/10 18/18/10 21/21/10
f 23/23/10 22/22/10 21/21/10
f 18/18/11 22/22/11 24/24/11
f 25/25/11 24/24/11 22/22/11
f 27/27/12 19/19/12 26/26/12
f 20/20/12 26/26/12 19/19/12
f 21/21/13 19/19/13 28/28/13
f 27/27/13 28/28/13 19/19/13
f 20/20/14 18/18/14 26/26/14
f 24/24/14 26/26/14 18/18/14
f 28/28/15 29/29/15 21/21/15
f 23/23/15 21/21/15 29/29/15
f 23/23/16 29/29/16 22/22/16
f 25/25/16 22/22/16 29/29/16
f 31/31/17 13/13/17 30/30/17
f 2/2/17 30/30/17 13/13/17
f 17/17/17 30/30/17 2/2/17
f 14/14/17 17/17/17 2/2/17
f 31/31/18 32/32/18 13/13/18
f 33/33/18 13/13/18 32/32/18
f 11/11/18 13/13/18 33/33/18
f 17/17/19 15/15/19 30/30/19
f 30/30/20 35/35/20 34/34/20
f 30/30/21 15/15/21 35/35/21
f 36/36/22 32/32/22 30/30/22
f 36/36/23 30/30/23 34/34/23
f 30/30/19 32/32/19 31/31/19
f 39/39/24 38/38/24 37/37/24
f 41/41/25 40/40/25 39/39/25
f 39/39/26 40/40/26 38/38/26
f 44/44/27 43/43/27 42/42/27
f 45/45/27 42/42/27 43/43/27
f 46/46/27 45/45/27 43/43/27
f 47/47/27 46/46/27 43/43/27
f 42/42/28 48/48/28 44/44/28
f 49/49/28 44/44/28 48/48/28
f 50/50/28 44/44/28 49/49/28
f 26/26/10 51/51/10 27/27/10
f 52/52/10 27/27/10 51/51/10
f 28/28/10 27/27/10 52/52/10
f 53/53/10 28/28/10 52/52/10
f 29/29/10 28/28/10 53/53/10
f 54/54/10 29/29/10 53/53/10
f 49/49/10 26/26/10 33/33/10
f 11/11/10 33/33/10 26/26/10
f 24/24/10 11/11/10 26/26/10
f 12/12/10 11/11/10 24/24/10
f 25/25/10 12/12/10 24/24/10
f 29/29/10 12/12/10 25/25/10
f 16/16/10 12/12/10 29/29/10
f 55/55/10 16/16/10 29/29/10
f 41/41/10 16/16/10 55/55/10
f 48/48/10 51/51/10 49/49/10
f 26/26/10 49/49/10 51/51/10
f 56/56/10 51/51/10 48/48/10
f 57/57/10 56/56/10 48/48/10
f 58/58/10 56/56/10 57/57/10
f 54/54/10 58/58/10 57/57/10
f 55/55/10 54/54/10 57/57/10
f 29/29/10 54/54/10 55/55/10
f 43/43/8 59/59/8 47/47/8
f 61/61/29 60/60/29 58/58/29
f 56/56/29 58/58/29 60/60/29
f 51/51/14 62/62/14 52/52/14
f 63/63/14 52/52/14 62/62/14
f 63/63/30 64/64/30 52/52/30
f 53/53/30 52/52/30 64/64/30
f 62/62/10 60/60/10 63/63/10
f 64/64/10 63/63/10 60/60/10
f 61/61/10 64/64/10 60/60/10
f 65/65/10 64/64/10 61/61/10
f 44/44/8 50/50/8 43/43/8
f 68/68/2 67/67/2 66/66/2
f 69/69/2 66/66/2 67/67/2
f 57/57/31 46/46/31 55/55/31
f 47/47/31 55/55/31 46/46/31
f 59/59/31 55/55/31 47/47/31
f 48/48/19 69/69/19 57/57/19
f 70/70/19 57/57/19 69/69/19
f 46/46/19 57/57/19 70/70/19
f 71/71/19 46/46/19 70/70/19
f 66/66/19 71/71/19 70/70/19
f 72/72/19 71/71/19 66/66/19
f 45/45/19 46/46/19 71/71/19
f 48/48/19 42/42/19 69/69/19
f 66/66/19 69/69/19 42/42/19
f 72/72/19 66/66/19 42/42/19
f 45/45/19 72/72/19 42/42/19
f 56/56/12 60/60/12 51/51/12
f 62/62/12 51/51/12 60/60/12
f 40/40/32 73/73/32 38/38/32
f 67/67/33 68/68/33 70/70/33
f 55/55/34 59/59/34 41/41/34
f 73/73/34 41/41/34 59/59/34
f 41/41/34 39/39/34 16/16/34
f 59/59/34 35/35/34 73/73/34
f 37/37/34 73/73/34 35/35/34
f 39/39/34 37/37/34 35/35/34
f 15/15/34 39/39/34 35/35/34
f 16/16/34 39/39/34 15/15/34
f 35/35/35 43/43/35 34/34/35
f 69/69/36 67/67/36 70/70/36
f 72/72/37 74/74/37 71/71/37
f 70/70/38 68/68/38 66/66/38
f 71/71/39 75/75/39 45/45/39
f 65/65/16 54/54/16 64/64/16
f 53/53/16 64/64/16 54/54/16
f 74/74/40 75/75/40 71/71/40
f 40/40/41 41/41/41 73/73/41
f 58/58/15 54/54/15 61/61/15
f 65/65/15 61/61/15 54/54/15
f 75/75/2 74/74/2 45/45/2
f 72/72/2 45/45/2 74/74/2
f 50/50/42 49/49/42 36/36/42
f 33/33/42 36/36/42 49/49/42
f 32/32/42 36/36/42 33/33/42
f 35/35/43 59/59/43 43/43/43
f 38/38/44 73/73/44 37/37/44
f 43/43/45 50/50/45 36/36/45
f 43/43/46 36/36/46 34/34/46
